<svg width="115" height="24" viewBox="0 0 115 24" fill="none" xmlns="http://www.w3.org/2000/svg">
<path d="M70.902 5.3723H57.1181V8.305H62.5537V18.6686H65.4664V8.305H70.902V5.3723Z" fill="black"/>
<path d="M98.9665 5.36286H96.0538V18.6686H98.9665V5.36286Z" fill="black"/>
<path d="M54.2467 14.057C55.4622 13.1244 56.1591 11.7257 56.1591 10.2188C56.1591 7.54742 53.9996 5.37419 51.3459 5.37419L43.4086 5.36286V12.1313H43.3805V15.2101L43.4067 15.3285L43.4092 18.6692H46.3219V15.0634H51.2671L52.801 18.6667H55.9708L54.0672 14.1956L54.2467 14.057ZM51.3465 12.1313H46.3219V8.30689H51.3465C52.3944 8.30689 53.2464 9.16459 53.2464 10.2194C53.2464 11.2742 52.3944 12.1319 51.3465 12.1319V12.1313Z" fill="black"/>
<path d="M91.6611 5.36286L88.1553 15.7636L85.2652 5.3723H81.4992L78.6078 15.7655L75.1008 5.36286H72.0268L76.5096 18.6661H80.8255L83.3822 9.47694L85.9389 18.6661H90.2535L94.7364 5.36286H91.6611Z" fill="black"/>
<path d="M115 18.6686V5.36286H112.087V14.154L104.192 5.36286H101.326V18.6686H104.239V9.78552L112.217 18.6686H115Z" fill="black"/>
<path d="M37.4751 16.2051L38.5241 18.6686H41.6939L36.0187 5.33137H31.2093L25.5341 18.6686H28.7051L29.753 16.2051H37.4751ZM33.1317 8.26344H34.0957L36.2283 13.273H30.9997L33.1323 8.26344H33.1317Z" fill="black"/>
<path d="M17.6719 24V0H0V24L8.83562 12.7825L17.6719 24Z" fill="#FFD10C"/>
<path d="M6.80938 20.6876L8.83624 18.1151L10.8625 20.6876H6.80938Z" fill="#FFD10C"/>
</svg>
