<svg width="144" height="30" viewBox="0 0 144 30" fill="none" xmlns="http://www.w3.org/2000/svg">
<path d="M88.7816 6.71538H71.5218V10.3812H78.3281V23.3358H81.9753V10.3812H88.7816V6.71538Z" fill="white"/>
<path d="M123.923 6.70357H120.276V23.3358H123.923V6.70357Z" fill="white"/>
<path d="M67.9263 17.5713C69.4483 16.4055 70.3209 14.6572 70.3209 12.7735C70.3209 9.43428 67.6169 6.71774 64.294 6.71774L54.3551 6.70357V15.1641H54.3199V19.0126L54.3528 19.1606L54.3559 23.3366H58.0031V18.8292H64.1953L66.116 23.3334H70.0852L67.7015 17.7445L67.9263 17.5713ZM64.2948 15.1641H58.0031V10.3836H64.2948C65.6068 10.3836 66.6738 11.4557 66.6738 12.7743C66.6738 14.0928 65.6068 15.1649 64.2948 15.1649V15.1641Z" fill="white"/>
<path d="M114.776 6.70357L110.386 19.7045L106.767 6.71538H102.051L98.4306 19.7069L94.0393 6.70357H90.19L95.8034 23.3326H101.208L104.409 11.8462L107.61 23.3326H113.013L118.626 6.70357H114.776Z" fill="white"/>
<path d="M144 23.3358V6.70357H140.353V17.6925L130.466 6.70357H126.877V23.3358H130.525V12.2319L140.515 23.3358H144Z" fill="white"/>
<path d="M46.9253 20.2564L48.2389 23.3358H52.208L45.1017 6.66422H39.0795L31.9731 23.3358H35.9438L37.2559 20.2564H46.9253ZM41.4866 10.3293H42.6937L45.3641 16.5913H38.8171L41.4874 10.3293H41.4866Z" fill="white"/>
<path d="M22.1282 30V0H0V30L11.0637 15.9781L22.1282 30Z" fill="#FFD10C"/>
<path d="M8.52653 25.8595L11.0645 22.6439L13.6017 25.8595H8.52653Z" fill="#FFD10C"/>
</svg>
